<?xml version="1.0" encoding="UTF-8"?>
<!DOCTYPE svg PUBLIC "-//W3C//DTD SVG 1.1//EN" "http://www.w3.org/Graphics/SVG/1.1/DTD/svg11.dtd">
<!-- Creator: CorelDRAW 2020 (64-Bit) -->
<svg xmlns="http://www.w3.org/2000/svg" xml:space="preserve" width="18.4912cm" height="5.42713cm" version="1.1" style="shape-rendering:geometricPrecision; text-rendering:geometricPrecision; image-rendering:optimizeQuality; fill-rule:evenodd; clip-rule:evenodd"
viewBox="0 0 2341.14 686.89"
 xmlns:xlink="http://www.w3.org/1999/xlink"
 xmlns:xodm="http://www.corel.com/coreldraw/odm/2003">
 <defs>
  <style type="text/css">
   <![CDATA[
    .str0 {stroke:#332C2B;stroke-width:2.53;stroke-miterlimit:22.9256}
    .fil0 {fill:#332C2B;fill-rule:nonzero}
   ]]>
  </style>
 </defs>
 <g id="Layer_x0020_1">
  <metadata id="CorelCorpID_0Corel-Layer"/>
  <path class="fil0 str0" d="M872.05 555.62c0,3.93 -0.27,7.87 0.04,11.77 2.04,25.45 10.62,48.7 28.89,68.53 21.41,23.23 53.77,23.89 76.26,1.58 3.16,-3.13 6.07,-6.51 8.68,-10.03 30.56,-41.16 29.79,-107.45 -2.33,-147.63 -5.37,-6.7 -12.85,-12.57 -20.6,-17.05 -17.06,-9.86 -34.37,-8.21 -50.71,2.24 -9.65,6.16 -16.58,14.55 -22.32,23.73 -12.95,20.73 -18.45,43.16 -17.92,66.86zm-63.96 -5.06c1.31,-45.8 22.81,-85.01 69.22,-110.43 40.54,-22.19 82.88,-21.59 123.51,0.72 39.53,21.71 60.18,55.2 65.71,95.94 6.63,48.89 -9.85,90.79 -52.04,122.82 -46.31,35.16 -110.79,33.78 -156.02,-2.47 -34.38,-27.55 -50,-62.55 -50.38,-106.59z"/>
  <path class="fil0 str0" d="M1492.18 509.02c3.52,0.43 5.61,0.9 7.71,0.91 20.97,0.06 41.94,0.12 62.92,-0.04 4.3,-0.03 8.67,-0.64 12.86,-1.55 8.9,-1.92 12.17,-5.71 11.7,-14.02 -0.76,-13.53 -5.89,-25.6 -16.42,-35.42 -18.76,-17.48 -47.29,-15.84 -63.09,3.93 -10.68,13.37 -14.41,28.91 -15.68,46.2zm65.74 25.78c-13.74,0 -27.49,-0.04 -41.23,0.03 -3.97,0.02 -7.98,0.11 -11.89,0.64 -10.03,1.34 -15.78,6 -17.43,14.99 -0.94,5.1 -1.09,10.49 -0.42,15.62 3.2,24.72 13.75,46.67 31.87,65.44 15.83,16.4 36.36,24.39 60.04,25.98 15.66,1.05 31.07,-0.27 45.89,-5.43 2.01,-0.7 4.1,-1.41 6.21,-1.68 5.69,-0.73 9.98,1.51 12.28,6.11 2.25,4.53 1.33,9.15 -2.91,12.46 -1.88,1.47 -4.17,2.64 -6.48,3.49 -39.16,14.37 -79.34,17.27 -120.07,6.96 -45.53,-11.52 -71.75,-39.91 -82.01,-80.89 -8.3,-33.15 -7.3,-66.36 2.32,-99.15 2.85,-9.71 7.12,-19.31 12.41,-28.15 14.68,-24.54 37.92,-39.02 68.11,-44.19 28.46,-4.87 56.34,-3.65 82.29,9.18 24.72,12.21 41.7,30.15 46.34,56.05 4.44,24.82 -10.79,41.61 -38.67,42.43 -15.54,0.46 -31.1,0.08 -46.65,0.08 0,0 0,0.02 0,0.03z"/>
  <path class="fil0 str0" d="M1827.6 478.4c-6.61,0 -10.92,0.05 -15.22,-0.02 -2.48,-0.05 -4.95,-0.31 -8.22,-0.54 -0.91,-4.67 -1.63,-9.1 -2.64,-13.49 -4.07,-17.62 -16.95,-26.25 -36.71,-24.73 -25.37,1.96 -41.79,17.45 -42.19,39.57 -0.15,7.92 2.34,15.09 8.01,20.85 6.46,6.56 13.21,13.14 20.95,18.37 14.18,9.58 29.39,17.91 43.76,27.29 9.94,6.49 19.85,13.23 28.63,20.92 30.65,26.81 24.88,76.34 -0.71,99.07 -14.21,12.62 -31.77,17.95 -50.98,19.23 -27.88,1.85 -54.77,-2.65 -80.63,-12.15 -2.64,-0.97 -5.32,-2.19 -7.48,-3.84 -4.19,-3.19 -5.12,-8.06 -2.93,-12.5 2.2,-4.46 6.63,-6.79 12.36,-5.99 3.18,0.44 6.21,1.78 9.39,2.38 16.25,3.04 32.44,6.48 48.83,8.75 10,1.39 20.23,0.34 29.89,-3.14 12.29,-4.43 18.98,-12.54 20.2,-24.47 1.36,-13.19 -2.41,-24.94 -13.32,-33.86 -8.27,-6.76 -17.35,-12.8 -26.6,-18.47 -11.67,-7.16 -24.14,-13.25 -35.73,-20.49 -8.59,-5.37 -16.68,-11.49 -24.41,-17.86 -37.84,-31.18 -23.78,-90.75 20.12,-109.56 9.94,-4.26 21.13,-7.06 32.05,-8.32 21.78,-2.51 43.25,-0.27 63.84,7.47 6.79,2.56 10.42,5.77 9.92,13.05 -0.72,10.34 -0.18,20.74 -0.18,32.49z"/>
  <path class="fil0 str0" d="M502.74 241.28c0,-4.43 0,-7.99 0,-11.56 0,-34.05 0.02,-68.11 -0.04,-102.16 -0,-3.92 -0.02,-7.89 -0.69,-11.75 -1.93,-11.22 -9.57,-17.4 -21.96,-18 -3.91,-0.19 -7.84,-0.03 -12.64,-0.03 0,-4.81 0,-8.53 0,-13.17 0,-1.28 25.74,-0.93 27.85,-0.93 10.32,0.02 22.02,-1 29.95,6.18 2.47,2.23 4.43,4.89 6.04,7.68 1.31,2.27 2.53,4.59 4.36,7.92 3,-1.97 5.53,-3.52 7.92,-5.22 11.21,-8.01 23.4,-13.94 37.6,-16.71 37.11,-7.24 63.77,12.44 73.14,38.37 3.19,8.85 4.2,18.57 4.68,27.95 0.75,14.71 0.01,29.47 0.31,44.2 0.12,5.51 0.79,11.15 2.27,16.48 2.89,10.39 8.26,13.94 20.13,14.3 4.61,0.14 9.22,0.02 14.6,0.02 0,6.08 0,10.82 0,16.15 -2.55,0.45 -4.91,1.21 -7.29,1.23 -12.3,0.13 -24.61,0.2 -36.9,0.02 -12.23,-0.17 -19.78,-5.03 -23.1,-15.76 -1.83,-5.9 -2.64,-12.22 -2.75,-18.37 -0.35,-18.33 0.2,-36.68 -0.3,-55 -0.21,-7.77 -1.04,-15.82 -3.57,-23.19 -7.02,-20.49 -31.13,-30.55 -53.24,-22.9 -10.38,3.59 -18.89,9.69 -25.9,17.35 -5.28,5.76 -6.83,12.72 -6.78,20.21 0.17,28.49 0.08,56.97 0.04,85.47 -0,3.53 -0.32,7.06 -0.53,11.44 -11.33,1.21 -21.81,1.43 -33.19,-0.22z"/>
  <path class="fil0 str0" d="M418.58 162.23c-0.63,-4.24 -1.04,-11.5 -2.91,-18.44 -3.73,-13.85 -9.64,-26.86 -22.72,-35.91 -13.22,-9.16 -28.69,-8.94 -40.28,1.79 -6.42,5.94 -12.12,13.23 -15.71,20.85 -10.51,22.29 -10.68,45.23 -1.32,67.98 3.82,9.27 9.36,17.77 18,24.16 12.58,9.31 28.51,9.18 40.6,-0.52 3.74,-3 7.04,-6.61 9.88,-10.35 10.66,-14.01 13.77,-29.99 14.46,-49.56zm-128.61 2.73c-0.04,-25.64 10.19,-47.47 31.15,-64.55 33.09,-26.95 79.74,-23.88 110.52,6.61 32.78,32.46 30.92,89.28 -3.93,119.89 -37.45,32.89 -94.2,26.59 -122.29,-13.58 -10.2,-14.59 -15.43,-30.97 -15.45,-48.37z"/>
  <path class="fil0 str0" d="M964.82 136.71c8.33,0.12 15.42,0.31 22.51,0.31 9.36,0.01 18.76,0.27 28.08,-0.33 9.37,-0.6 12.41,-4.54 11.49,-13.09 -0.99,-9.22 -5.41,-16.88 -13.29,-22.72 -10.6,-7.86 -24.66,-7.57 -34.46,0.94 -10.52,9.13 -13.22,20.99 -14.34,34.88zm44.84 14.33c-10.12,0 -20.26,-0.4 -30.35,0.1 -13.62,0.67 -18.87,5.99 -17.99,18.3 1.33,18.65 9.22,35.01 23.89,48.16 16.51,14.8 36.98,16.36 58.59,12.63 3.18,-0.54 6.24,-1.63 9.38,-2.4 4.12,-1.02 7.23,0.21 8.66,3.86 1.32,3.37 -0.85,5.65 -3.8,7.31 -1.52,0.85 -3.21,1.49 -4.9,2.05 -24.86,8.21 -50.05,9.6 -75.55,2.66 -24.89,-6.76 -40.9,-21.84 -48.02,-44.13 -8.02,-25.14 -7.32,-50.52 1.33,-75.48 18.19,-52.52 92.1,-50.63 117.78,-23.24 6.74,7.19 11.47,15.08 13.22,24.32 2.78,14.68 -6.56,25.15 -22.96,25.61 -9.75,0.27 -19.52,0.05 -29.28,0.05 0,0.07 0,0.14 0,0.21z"/>
  <path class="fil0 str0" d="M285.02 69.71c-9.05,-0.24 -16.61,-0.36 -23.8,-0.36 -7.23,0 -14,0.12 -20.7,0.36l-2.17 0.08 0 16.25 1.82 0.34c8.12,1.47 11.95,2.91 13.24,4.94 1.04,1.66 0.78,4.35 -0.91,8.92l-32.94 75.27c-1.12,-2.06 -1.98,-3.65 -2.71,-5.29l-1.05 -2.32 -6.95 -13.65c-15.23,-29.92 -38.91,-76.46 -43.01,-84.46l-2.15 -4.2 -1.99 4.27c-12.53,26.91 -42.75,91.49 -51.09,109.33l-28.63 -66.21 0 -0.06 -7.5 -16.46c-3.3,-7.33 -6.52,-12.97 -10.12,-17.73 -2.61,-3.55 -7.38,-7.9 -12.22,-8.51 -5.97,-0.72 -12.3,-1.05 -19.9,-1.05 -5.98,0 -12.05,0.21 -17.93,0.42l-3.65 0.13 0 15.19 0.08 1.52 1.58 0.46c0.69,0.2 1.39,0.4 2.47,0.4 0.02,0 0.98,-0.01 0.98,-0.01 9.8,0 15.88,4.23 20.39,14.22l69.28 137.36 2.3 -1.98c0.38,-0.33 0.54,-0.68 0.75,-1.1l0.25 -0.51c1.15,-2.58 4.49,-10.23 8.97,-20.45 11.39,-26.01 33.53,-76.59 40.27,-90.99 9.43,19.46 49.03,101.34 53.95,111.57l2.18 4.52 72.81 -166.87 0.23 -0.39 0 -0.39 0.7 -2.48 -2.83 -0.08z"/>
  <path class="fil0 str0" d="M830.21 215.8c-20.06,22.99 -61.01,19.6 -76.77,-6.57 -4.06,-6.74 -6.44,-14.55 -8.17,-22.13 -3.26,-14.22 -2.5,-28.63 0.16,-42.91 1.77,-9.48 5.65,-18.25 11.9,-26.05 16.88,-21.06 48.23,-23.91 69.25,-6.19 6.61,5.57 12.3,12.03 15.3,19.53l0 64.08c-2.24,7.33 -6.34,14.13 -11.67,20.24zm65.61 8.94c-10.73,-0.67 -15.91,-4.46 -17.91,-13.97 -1.27,-6.06 -1.68,-12.34 -1.7,-18.52 -0.03,-9.8 -0.03,-19.59 -0.04,-29.39 0,-21.3 0.03,-42.59 0.01,-63.89 -0.03,-20.57 1.24,-41.61 -0.95,-62.09 -1.56,-14.63 -3.98,-30.54 -22.02,-34.34 -12.88,-2.71 -26.2,-0.34 -39.18,0.22 -5.03,0.22 -4.73,2.6 -4.63,6.31 0.01,0.45 0.27,6.71 0.13,6.71 4.54,0.21 8.09,0.4 11.65,0.52 9.61,0.32 16.07,3.92 19.07,12.36 0.76,2.13 1.32,4.3 1.79,6.49l0 69.85c-3.82,-2.92 -6.53,-4.92 -9.14,-7.01 -8.27,-6.6 -17.64,-11.36 -28.34,-13.89 -33.06,-7.82 -61.61,6.37 -79.47,28.55 -19.1,23.72 -22.31,50.76 -16.44,78.73 6.8,32.43 29.04,50.94 65.09,55.63 5.35,0.7 10.8,0.97 16.2,0.99 20.44,0.06 36.22,-7.61 46.85,-23.61 1.35,-2.04 3.14,-3.84 5.2,-6.33 1.05,1.98 1.84,2.81 1.89,3.66 0.85,14.63 12.39,20.83 27.35,20.64 9.04,-0.12 18.08,0.04 27.12,-0.05 4.58,-0.05 9.15,-0.37 14.07,-0.59 0,-5.77 0,-10.51 0,-16.92 -6.58,0 -11.61,0.26 -16.61,-0.05z"/>
  <path class="fil0 str0" d="M683.99 636.15c-30.55,35.02 -92.93,29.84 -116.93,-10 -6.18,-10.26 -9.8,-22.16 -12.45,-33.7 -4.95,-21.66 -3.8,-43.6 0.25,-65.36 2.68,-14.44 8.61,-27.79 18.13,-39.67 25.71,-32.07 73.45,-36.42 105.47,-9.43 10.06,8.48 18.74,18.32 23.31,29.74l0 97.6c-3.42,11.17 -9.65,21.52 -17.77,30.83zm99.92 13.62c-16.35,-1.02 -24.24,-6.79 -27.28,-21.28 -1.94,-9.22 -2.56,-18.79 -2.58,-28.21 -0.04,-14.92 -0.05,-29.84 -0.06,-44.76 0,-32.44 0.05,-64.87 0,-97.31 -0.04,-31.32 1.89,-63.38 -1.44,-94.57 -2.38,-22.28 -6.05,-46.51 -33.54,-52.3 -19.61,-4.13 -39.91,-0.51 -59.67,0.34 -7.67,0.33 -7.21,3.95 -7.05,9.6 0.02,0.68 0.41,10.23 0.19,10.22 6.91,0.31 12.33,0.61 17.75,0.79 14.64,0.49 24.48,5.97 29.05,18.82 1.15,3.24 2.01,6.55 2.73,9.88l0 106.39c-5.82,-4.44 -9.94,-7.49 -13.93,-10.68 -12.6,-10.05 -26.86,-17.31 -43.16,-21.16 -50.34,-11.9 -93.83,9.69 -121.03,43.48 -29.09,36.13 -33.98,77.31 -25.04,119.92 10.36,49.39 44.23,77.59 99.14,84.73 8.14,1.06 16.44,1.47 24.67,1.5 31.14,0.09 55.16,-11.58 71.36,-35.96 2.06,-3.1 4.78,-5.85 7.92,-9.64 1.6,3.01 2.81,4.27 2.88,5.58 1.3,22.29 18.87,31.72 41.66,31.43 13.76,-0.17 27.54,0.07 41.3,-0.07 6.97,-0.07 13.94,-0.56 21.42,-0.89 0,-8.79 0,-16.01 0,-25.77 -10.01,0 -17.69,0.39 -25.3,-0.08z"/>
  <path class="fil0 str0" d="M1217.45 103.63c0,0 -0.82,-2.53 -2.23,-5.5 -0.24,-0.55 -0.51,-1.11 -0.83,-1.69 -0.04,-0.07 -0.09,-0.13 -0.13,-0.2 -1.26,-2.34 -2.83,-4.69 -4.62,-6.11 -0.01,0 -0.03,0.04 -0.04,0.05 -6.66,-6.57 -16.42,-9.35 -26.81,-7.05 -11.06,2.45 -19.42,8.36 -26.2,16.39 -1.8,2.13 -3.73,4.19 -6.4,7.17 -1.31,-2.96 -1.97,-4.41 -2.6,-5.89 -5.26,-12.32 -12.36,-16.87 -27.02,-17.05 -9.03,-0.11 -18.07,-0.09 -27.11,0.02 -3.09,0.04 -6.16,0.56 -9.55,0.89 0,4.39 0,7.84 0,12.87 5.33,0 9.28,-0.16 13.2,0.03 12.34,0.58 18.41,5.32 20.37,16.51 0.96,5.46 1.26,11.07 1.27,16.6 0.11,33.04 0.03,66.08 0.1,99.11 0.01,3.79 0.52,7.59 0.78,11.1 12.44,2.25 23.08,1.95 31.49,-0.97 0,-3.19 -0.01,-6.74 0,-10.28 0.05,-23.55 -0.12,-47.11 0.28,-70.65 0.15,-8.47 0.94,-17.05 2.8,-25.32 1.55,-6.94 4.11,-14.02 7.96,-20.15 7.7,-12.28 22.34,-14.02 33.91,-4.65 2.33,1.89 3.63,4.8 5.74,7.69l10.01 -8.28c0.24,-0.18 0.47,-0.38 0.71,-0.55 0.58,-0.42 1.08,-0.85 1.51,-1.29l3.39 -2.81z"/>
  <path class="fil0 str0" d="M1275.53 64.36l0 1.1c0,-0.37 0,-0.73 0,-1.1z"/>
  <path class="fil0 str0" d="M1306.89 69.06l0 -16.87c-0.19,5.56 -0.21,11.16 0,16.87z"/>
  <path class="fil0 str0" d="M1306.89 49.85c0,0 0.07,0.03 0.08,0.04 0.24,-5.33 0.63,-10.65 1.41,-15.94 0.23,-1.61 0.8,-3.2 1.37,-4.74 3.38,-9.14 8.44,-12.5 19.14,-12.9 4.21,-0.15 8.42,-0.42 12.74,-0.65 0,-4.71 0,-8.39 0,-13.21 -14.63,0 -28.3,-0.21 -41.97,0.07 -11.28,0.22 -18.37,5.04 -21.23,15.02 -1.8,6.26 -2.54,12.88 -2.76,19.36 -0.3,9.09 -0.17,18.19 -0.14,27.29l0 0.18c0,0.37 0,0.73 0,1.1l0 18.27 -36.15 0 0 12.2 36.15 0 0 15.86 -0.02 -0.01c0.07,28.89 0.08,57.78 -0.07,86.68 -0.02,3.87 -0.68,7.87 -1.88,11.58 -3.39,10.51 -9.1,14.31 -21.17,14.86 -4.2,0.19 -8.39,0.51 -13.1,0.81 0,5.72 0,10.44 0,16.63 12.51,0 24.33,0.12 36.16,-0.03 14.02,-0.17 24.43,-6.69 28.32,-18.86 2.08,-6.49 2.85,-13.51 2.92,-20.3 0.3,-30.44 0.1,-60.88 0.16,-91.31 0,-0.45 0.02,-0.9 0.04,-1.34l0 -14.55 26.88 0 0 -12.2 -26.88 0 0 -14.67c-0.21,-5.71 -0.19,-11.31 0,-16.87l0 -2.34z"/>
  <path class="fil0 str0" d="M1573.06 224.74c-10.12,-0.79 -15.3,-4.52 -17.33,-13.48 -1.3,-5.72 -1.69,-11.69 -1.71,-17.55 -0.03,-9.65 -0.01,-19.29 -0.01,-28.94l0 -27.99c0.02,-13.78 0.05,-27.56 0.04,-41.34 0,-0.27 -0.04,-0.54 -0.04,-0.8l0 -10.06 -32.7 0c0,4.35 0,7.87 0,11.39 0,20.11 -0.05,40.23 0,60.36l0 29.07c-0.6,11.22 -5.35,20.92 -12.7,29.7 -9.55,11.4 -22.58,16.04 -38.28,13.75 -14.5,-2.12 -22.43,-11.01 -27.52,-22.6 -4.49,-10.23 -5.59,-20.95 -5.61,-31.82 -0.03,-18.67 0.23,-37.35 -0.16,-56.01 -0.13,-6.47 -0.95,-13.16 -3.01,-19.32 -2.07,-6.19 -7,-12.37 -14.15,-14.32 -4.68,-1.27 -10.51,-1.12 -15.35,-1.31 -2.94,-0.11 -36.64,-0.67 -36.64,1.29l0 13.02c5.39,0 9.98,-0.1 14.56,0.03 10.13,0.29 15.65,3.52 18.44,12.26 1.88,5.9 2.9,12.2 3.03,18.34 0.39,18.99 0.12,38 0.19,57 0.05,14.84 4.7,28.45 14.24,40.54 24.98,31.64 78.9,28.91 96.84,-2.56 1,-1.76 2.88,-3.1 4.56,-4.85 0.94,1.38 1.52,1.88 1.65,2.47 3.7,16.26 9.94,21.13 27.84,21.32 10.85,0.12 21.72,0.09 32.57,-0.04 2.73,-0.03 5.44,-0.7 8.13,-1.07l0 -15.72c-6.19,-0.26 -11.55,-0.32 -16.88,-0.74z"/>
  <path class="fil0 str0" d="M1681.96 224.84c-0.42,-0.01 -0.85,-0.01 -1.28,-0.03 -12.32,-0.54 -17.86,-4.64 -19.96,-15.6 -1.04,-5.44 -1,-11.08 -1.01,-16.64 -0.08,-49.46 0.19,-98.93 -0.27,-148.39 -0.08,-9.01 -2.06,-18.24 -4.82,-26.95 -3.08,-9.73 -11.06,-15 -22.81,-14.85 -8.87,0.12 -17.74,0.01 -26.6,0.06 -4.16,0.03 -8.34,-0.06 -12.51,-0.06l0 1.24c0,2.98 0,5.96 0,8.94 0,0.71 0,1.43 0,2.15l0 1.33c4.23,0 8.49,-0.13 12.7,0.08 3.78,0.19 7.56,0.82 10.77,2.75 0.07,0.04 0.13,0.08 0.2,0.12 1.1,0.69 2.11,1.5 2.98,2.42 3.53,3.68 5.22,8.54 6.13,13.26 1.24,6.41 1.4,13.04 1.41,19.57 0.1,50.77 0.04,101.55 0.07,152.32 0,4.58 0.34,9.17 0.34,13.75 -0.01,12.91 8.22,21.76 25.79,21.98 5.9,0.07 11.79,0.08 17.69,0.08l25 0 0 -1.01c0,-5.18 0,-9.91 0,-16.51l-13.84 0z"/>
  <path class="fil0 str0" d="M85.28 677.22c0.14,0.04 0.23,0.04 0.36,0.04 -0.27,0 -0.45,0 -0.45,0l0.09 -0.04z"/>
  <path class="fil0 str0" d="M129.99 648.1c-11.86,0.17 -20.04,-4.95 -24.89,-14.37 -2.13,-4.1 -3.71,-8.6 -4.39,-13.06 -1.13,-7.41 -1.76,-14.99 -1.81,-22.48 -0.18,-37.96 0.18,-75.92 -0.23,-113.88 -0.13,-8.72 -1.36,-17.69 -3.94,-26.08 -5.34,-17.57 -18.1,-25.8 -38.28,-26 -15.56,-0.16 -31.13,-0.08 -46.65,0 -2.8,0.04 -5.56,0.53 -8.55,0.86l0 22.81c5.38,0 10,-0.12 14.61,0 14.89,0.49 24.66,7.13 28.14,20.19 1.63,5.94 2.04,12.29 2.04,18.47 0.18,41.56 -0.27,83.13 0.32,124.65 0.18,11.02 1.81,22.32 5.16,32.84 5.2,16.14 16.34,23.87 33.75,25.19 0.14,0.04 0.23,0.04 0.36,0.04 1.54,0.13 3.12,0.21 4.75,0.21 18.41,0.17 36.87,0.08 55.28,0 1.04,0 2.13,-0.08 3.21,-0.21 3.58,0 5.75,0 5.75,0l0 -29.2c-8.92,0 -16.79,-0.08 -24.66,0.04z"/>
  <path class="fil0 str0" d="M1995.87 648.1c-11.85,0.17 -20.04,-4.95 -24.88,-14.37 -2.13,-4.1 -3.71,-8.6 -4.39,-13.06 -1.13,-7.41 -1.76,-14.99 -1.81,-22.48 -0.18,-37.96 0.18,-75.92 -0.23,-113.88 -0.13,-8.72 -1.35,-17.69 -3.94,-26.08 -5.34,-17.57 -18.1,-25.8 -38.27,-26 -15.56,-0.16 -31.13,-0.08 -46.65,0 -2.81,0.04 -5.57,0.53 -8.55,0.86l0 22.81c5.39,0 10,-0.12 14.62,0 14.88,0.49 24.66,7.13 28.14,20.19 1.63,5.94 2.03,12.29 2.03,18.47 0.18,41.56 -0.27,83.13 0.32,124.65 0.18,11.02 1.81,22.32 5.16,32.84 5.2,16.14 16.33,23.87 33.75,25.19 0.14,0.04 0.23,0.04 0.36,0.04 1.54,0.13 3.12,0.21 4.75,0.21 18.41,0.17 36.87,0.08 55.29,0 1.04,0 2.13,-0.08 3.21,-0.21 3.57,0 5.75,0 5.75,0l0 -29.2c-8.91,0 -16.79,-0.08 -24.66,0.04z"/>
  <path class="fil0 str0" d="M472.19 648.24c-3.6,-0.05 -7.2,-0.12 -10.8,-0.17 -14.92,-0.21 -22.21,-4.35 -26.18,-17.55 -2.72,-9.04 -3.97,-18.65 -4.19,-28.04 -0.62,-26.19 0.11,-52.4 -0.57,-78.58 -0.62,-23.65 -9.51,-44.99 -26.2,-63.22 -17.75,-19.39 -40.33,-29.93 -68.8,-30.34 -30.37,-0.44 -56.75,8.41 -80.3,25.16 -4.77,3.39 -9.43,6.9 -14.8,10.83 -1.36,-3.12 -2.34,-5.51 -3.42,-7.86 -8.42,-18.31 -21.58,-26.24 -43.59,-26.27 -15.92,-0.02 -31.84,-0.05 -47.76,0.02 -3.84,0.01 -7.67,0.41 -11.81,0.64 0,8.15 0,15.22 0,23.47 7.71,0.11 14.83,0.16 21.95,0.32 16.85,0.38 28.07,8.6 31.3,23.49 1.1,5.09 1.3,10.41 1.31,15.62 0.08,56.32 0.04,112.65 0.08,168.97 0,3.84 0.35,7.68 0.59,12.6 18.03,0.17 35.11,0.5 53.34,-0.25 0,-5.13 0,-8.99 0,-12.85 0.01,-46.5 0.1,-93 -0.07,-139.5 -0.04,-10.64 3.2,-20.12 10.56,-28.22 9.3,-10.22 20.49,-18.53 33.85,-24.1 38.74,-16.15 79.17,2.07 87.77,39.74 1.74,7.63 2.31,15.59 2.39,23.41 0.27,28.82 0.08,57.64 0.11,86.45 0.01,11.86 1.13,23.57 6.32,34.66 4.79,10.25 12.54,18.52 25.01,19.75 21.65,2.13 43.41,1.25 65.56,1.06l14.01 0c0,-10.22 0,-19.18 0,-27.81l0 -1.43 -15.65 0z"/>
  <path class="fil0 str0" d="M1394.61 648.06c-16.08,-0.12 -23.4,-4.63 -27.53,-18.64 -2.31,-7.83 -3.67,-16.1 -3.85,-24.2 -0.55,-25.87 -0.31,-51.74 -0.44,-77.62 -0.12,-24.42 -8.19,-46.55 -24.98,-65.62 -17.58,-19.97 -40.31,-31 -69.21,-31.64 -33.29,-0.74 -61.48,9.94 -86.43,29.01 -2.95,2.26 -5.89,4.54 -9.45,7.28 -1.84,-4.08 -3,-7.16 -4.56,-10.05 -7.24,-13.43 -17.5,-22.39 -33.26,-24.2l0 -0.02 -0.16 0c-2.6,-0.29 -5.33,-0.41 -8.24,-0.3 -16.26,0.62 -32.56,0.09 -48.85,0.15 -1.46,0 -2.93,0.07 -4.45,0.15l-7.1 0 0 0.41c0,8.37 0,15.42 0,23.87l18.13 0c1.31,0.01 2.64,-0.01 3.94,0.02 16.07,0.33 26.83,7.69 30.65,21.71 1.53,5.65 2,11.65 2.01,17.5 0.12,48.06 0.09,96.12 0.09,144.18l-0 0 0 37.5 54.11 0 0 -37.5 -0.08 0c0.02,-38.15 0.08,-76.29 -0.1,-114.44 -0.05,-10.94 2.74,-20.92 10.44,-29.26 9.36,-10.14 20.55,-18.48 33.95,-24.02 38.04,-15.72 77.64,1.41 86.98,38.18 2.64,10.42 3.31,21.41 3.48,32.15 0.46,28.16 -0.18,56.34 0.35,84.49 0.17,8.71 1.55,17.7 4.38,26.01 5.79,17.05 17.47,24.18 37.22,24.3 19.54,0.12 39.08,0.06 58.62,-0 3.14,-0.01 6.27,-0.47 9.84,-0.76 0,-9.65 0,-18.58 0,-28.64 -9.04,0 -17.28,0.05 -25.52,-0.01z"/>
  <path class="fil0 str0" d="M2201.91 603.28c-1.4,10.3 -7.59,18.52 -15.75,26.23 -10.51,9.93 -22.7,17.11 -37.89,19.62 -16.93,2.8 -28.89,-2.68 -36.3,-16.68 -9.7,-18.32 -5.73,-38.01 10.5,-52.1 0.78,-0.68 1.54,-1.39 2.38,-2.01 21.94,-15.95 48.05,-21.39 76.96,-25.55 0,5.11 0,8.32 0,11.52 -0,9.56 -0.8,19.19 0.1,28.66l0 10.31zm134.72 -122.57c-3.66,8.46 -8.38,15.55 -16.85,20.28 -8.72,4.87 -52.2,15.04 -63.93,14.53 -0.3,-2.12 -0.54,-4.34 -0.93,-6.54 -1.42,-8.07 -2.17,-16.3 -4.49,-24.15 -9.8,-33.23 -37.3,-52.29 -75.4,-52.61 -19.18,-0.16 -38.35,-0.07 -57.54,0 -3.47,0.01 -6.93,0.45 -10.78,0.72 0,7.76 0,14.5 0,22.93 5.23,0 9.15,0 13.07,0 13.03,0.01 26.06,-0.04 39.08,0.04 11.44,0.07 21.56,3.31 28.53,11.84 14.72,18 15.42,38.58 13.75,59.93 -5.34,1.05 -9.55,1.93 -13.78,2.71 -14.18,2.6 -28.33,5.34 -42.56,7.72 -29.16,4.88 -53.65,17.18 -73.31,37.29 -13.37,13.67 -21.46,29.4 -22.47,47.85 -1.68,30.64 18.9,55.07 52.21,60.6 19.83,3.29 39.67,2.1 58.75,-4.54 17.35,-6.04 30.39,-16.22 37.44,-32.13 0.68,-1.53 1.94,-2.84 3.98,-5.74 0.72,3.46 1.05,4.99 1.35,6.51 3.44,17.53 13.57,27.45 32.9,28.76 17.85,1.21 35.88,0.24 53.82,0.14l3.48 0 0 -28.21 -1.29 0c-0.71,-0.11 -1.66,-0.13 -2.04,-0.17 -4.52,-0.56 -9.03,-0.39 -13.39,-1.77 -3.44,-1.09 -6.54,-2.9 -9.03,-5.29 -3.14,-3 -5.23,-6.73 -6.72,-10.61 -1.51,-4 -2.89,-8.22 -3.1,-12.4 -0.96,-18.95 -1.52,-37.92 -2.14,-56.88 -0.17,-5.18 -0.03,-10.37 -0.03,-16.09 3.89,-0.92 6.93,-1.77 10.04,-2.34 10.28,-1.89 20.63,-3.49 30.88,-5.52 20.61,-4.08 39.75,-21.32 43.06,-38.73 1.18,-6.2 1.17,-12.36 -2.56,-18.14z"/>
 </g>
</svg>
